<svg width="449" height="366" viewBox="0 0 449 366" fill="none" xmlns="http://www.w3.org/2000/svg">
<path d="M192.252 298.527V287.527C192.388 286.04 192.739 285.261 194.252 284.027L197.252 282.527L197.257 282.526C198.111 282.455 198.591 282.415 199.252 284.027V296.027C199.189 296.934 199.072 297.461 198.252 298.527L194.252 299.527C193.106 299.316 192.757 299.053 192.252 298.527Z" stroke="#D9D9D9" stroke-width="1.5"/>
<path d="M227.411 278.892V267.892C227.546 266.405 227.898 265.626 229.411 264.392L232.411 262.892L232.416 262.891C233.27 262.82 233.75 262.78 234.411 264.392V276.392C234.348 277.299 234.231 277.826 233.411 278.892L229.411 279.892C228.265 279.681 227.916 279.418 227.411 278.892Z" stroke="#D9D9D9" stroke-width="1.5"/>
<path d="M215.411 285.892V274.892C215.546 273.405 215.898 272.626 217.411 271.392L220.411 269.892L220.416 269.891C221.27 269.82 221.75 269.78 222.411 271.392V283.392C222.348 284.299 222.231 284.826 221.411 285.892L217.411 286.892C216.265 286.681 215.916 286.418 215.411 285.892Z" stroke="#D9D9D9" stroke-width="1.5"/>
<path d="M203.411 291.892V280.892C203.546 279.405 203.898 278.626 205.411 277.392L208.411 275.892L208.416 275.891C209.27 275.82 209.75 275.78 210.411 277.392V289.392C210.348 290.299 210.231 290.826 209.411 291.892L205.411 292.892C204.265 292.681 203.916 292.418 203.411 291.892Z" stroke="#D9D9D9" stroke-width="1.5"/>
<path d="M192.411 319.892V308.892C192.546 307.405 192.898 306.626 194.411 305.392L197.411 303.892L197.416 303.891C198.27 303.82 198.75 303.78 199.411 305.392V317.392C199.348 318.299 199.231 318.826 198.411 319.892L194.411 320.892C193.265 320.681 192.916 320.418 192.411 319.892Z" stroke="#D9D9D9" stroke-width="1.5"/>
<path d="M227.411 299.892V288.892C227.546 287.405 227.898 286.626 229.411 285.392L232.411 283.892L232.416 283.891C233.27 283.82 233.75 283.78 234.411 285.392V297.392C234.348 298.299 234.231 298.826 233.411 299.892L229.411 300.892C228.265 300.681 227.916 300.418 227.411 299.892Z" stroke="#D9D9D9" stroke-width="1.5"/>
<path d="M215.411 306.892V295.892C215.546 294.405 215.898 293.626 217.411 292.392L220.411 290.892L220.416 290.891C221.27 290.82 221.75 290.78 222.411 292.392V304.392C222.348 305.299 222.231 305.826 221.411 306.892L217.411 307.892C216.265 307.681 215.916 307.418 215.411 306.892Z" stroke="#D9D9D9" stroke-width="1.5"/>
<path d="M203.411 312.892V301.892C203.546 300.405 203.898 299.626 205.411 298.392L208.411 296.892L208.416 296.891C209.27 296.82 209.75 296.78 210.411 298.392V310.392C210.348 311.299 210.231 311.826 209.411 312.892L205.411 313.892C204.265 313.681 203.916 313.418 203.411 312.892Z" stroke="#D9D9D9" stroke-width="1.5"/>
<path d="M155.411 251.365L180.411 264.365C186.496 265.505 189.804 265.617 195.411 264.365L236.911 252.365" stroke="#D9D9D9" stroke-width="1.5"/>
<path d="M252.911 68.8651C252.911 68.8651 253.411 14.3648 252.911 7.86508C252.411 1.36539 244.7 -1.76811 237.911 2.36508L155.911 50.8651C155.911 50.8651 146.411 55.8651 146.411 77.8651C146.411 99.8651 146.411 179.865 146.411 179.865L92.4109 222.865C90.6711 225.977 89.89 228.457 90.4109 234.865V275.365C90.3246 279.385 91.1101 281.59 94.4109 285.365L121.411 301.365C125.591 301.52 127.903 301.189 131.911 299.365L148.911 288.865V313.865C149.898 317.343 150.643 319.184 153.911 321.365L178.911 335.365C183.845 336.649 186.868 335.656 192.411 332.865L237.911 306.865C240.128 302.84 240.389 300.833 240.411 297.365V250.865C240.226 247.609 238.906 246.035 235.911 243.365L210.411 229.365C206.038 228.131 203.752 228.191 199.911 229.365L182.911 234.865V199.865L243.411 164.365C249.31 159.318 251.507 156.081 252.911 149.365V137" stroke="black"/>
<path d="M204.411 6.36523L156.411 32.8652C141.731 43.2083 135.675 51.1701 132.411 72.8652V132.365M132.411 132.365V159.365V171.865C128.867 178.823 126.16 180.912 119.411 179.865L96.411 166.865C87.9828 161.885 89.0739 157.945 96.411 153.865L132.411 132.365Z" stroke="#D9D9D9"/>
<path d="M97.4106 230.865L118.411 240.865C124.463 243.551 127.859 243.252 133.911 240.865L177.911 202.865" stroke="#D9D9D9" stroke-width="1.5"/>
<path d="M156.252 246L155.752 239C155.517 237.84 155.637 237.184 156.752 236L160.252 234.5C161.509 234.605 162.063 235.043 162.752 236.5V244" stroke="#D9D9D9" stroke-width="1.5"/>
<path d="M167.255 242V233C167.255 232 167.141 231.184 168.255 230L171.755 228.5C173.012 228.605 173.566 229.043 174.255 230.5V240" stroke="#D9D9D9" stroke-width="1.5"/>
<path d="M132.252 284.527V273.527C132.388 272.04 132.739 271.261 134.252 270.027L137.252 268.527L137.257 268.526C138.111 268.455 138.591 268.415 139.252 270.027V282.027C139.189 282.934 139.072 283.461 138.252 284.527L134.252 285.527C133.106 285.316 132.757 285.053 132.252 284.527Z" stroke="#D9D9D9" stroke-width="1.5"/>
<path d="M151.252 249.5V243.5C150.948 241.85 150.429 241.562 149.252 241.5L146.252 243C144.876 243.818 144.347 244.342 144.252 245.5V256C144.668 257.441 144.937 258.203 146.252 258.5L148.751 257.5" stroke="#D9D9D9" stroke-width="1.5"/>
<path d="M148.752 263.5L145.252 265C143.876 265.818 143.347 266.342 143.252 267.5V278C143.668 279.441 143.937 280.203 145.252 280.5L148.252 279.5" stroke="#D9D9D9" stroke-width="1.5"/>
<path d="M132.252 264.527V253.527C132.388 252.04 132.739 251.261 134.252 250.027L137.252 248.527L137.257 248.526C138.111 248.455 138.591 248.415 139.252 250.027V262.027C139.189 262.934 139.072 263.461 138.252 264.527L134.252 265.527C133.106 265.316 132.757 265.053 132.252 264.527Z" stroke="#D9D9D9" stroke-width="1.5"/>
<path d="M148.752 291V257C149.023 251.228 150.698 249.526 154.252 247L182.752 237" stroke="black"/>
<path d="M193.861 71.3134L193.845 64.2956L216.155 53.3071L215.673 60.2904L193.861 71.3134Z" fill="#D9D9D9"/>
<path d="M219.836 58.0721L220.284 51.5875L241.029 41.4932L240.581 47.9778L219.836 58.0721Z" fill="#D9D9D9"/>
<path d="M181.973 91.0412L181.992 83.5246L193.912 77.8326L193.395 85.3148L181.973 91.0412Z" fill="#D9D9D9"/>
<path d="M196.99 84.0596L197.507 76.5774L229.175 60.7223L228.589 69.202L196.99 84.0596Z" fill="#D9D9D9"/>
<path d="M189.717 66.0154L182.922 70.0567L182.938 77.0745L189.63 74.5296L189.717 66.0154Z" fill="#D9D9D9"/>
<path d="M186.752 98.5L252.252 60.5V70.5L188.752 107C184.98 110.16 181.752 112 181.252 119.5V167.5C175.367 168.745 173.427 167.83 172.252 163.5V117C172.718 108.222 176.917 102.681 186.752 98.5Z" fill="#F4F4F4"/>
<path d="M291.752 58.3738C290.62 52.6386 289.199 50.698 282.252 54.3738L187.252 108.374C182.655 113.081 181.27 115.71 180.252 120.374V173.374C181.981 177.612 183.915 178.216 189.252 175.874L286.252 119.374C290.291 115.383 291.182 112.213 291.752 105.874V58.3738Z" stroke="black"/>
<path d="M90.2083 260.79L58.7083 278.29C52.7052 284.62 51.8394 288.367 55.2083 295.29L114.708 330.243M289.708 206.29L290.208 160.29C293.096 147.846 297.54 149.196 306.208 153.79L383.708 198.79C390.562 205.406 394.142 209.425 395.708 222.29V358.29C394.597 365.731 391.707 367.088 380.708 362.29L300.708 317.29C291.044 313.313 285.756 313.063 276.708 318.29L199.208 362.29C186.811 365.729 179.691 365.351 166.708 360.79L114.708 330.243M289.208 278.29L290.208 295.29C286.289 302.237 283.51 304.882 274.708 301.29L240.252 282.5M86.2083 348.29L114.708 330.243M304.958 287.54L304.208 346.79" stroke="black"/>
<path d="M351.252 179.033V173.033C353.308 167.862 356.168 168.655 361.252 170.033L364.752 172.04M395.752 255.033L401.752 257.533C405.492 256.921 406.583 255.354 407.252 251.033V246.033M364.752 172.04L398.752 191.533C403.357 196.129 405.414 199.141 407.252 206.033V246.033M364.752 172.04V166.533V165.033C365.689 160.059 368.116 159.997 373.252 161.033L409.752 182.033C415.999 186.572 418.545 189.792 420.252 197.533L420.752 245.033C419.418 248.373 417.822 249.131 414.252 249.533L407.252 246.033" stroke="#D9D9D9"/>
<path d="M332.252 151L379.252 123.5" stroke="black"/>
<path d="M354.752 138H383.752" stroke="black"/>
<path d="M0.251709 248.5L85.2517 199" stroke="black"/>
<path d="M27.7517 233H55.7517" stroke="black"/>
<path d="M55.7517 216V199" stroke="black"/>
<path d="M310.148 352.152C308.505 348.878 307.506 347.086 304.388 344.652C301.982 344.057 300.508 345.263 298.507 347.263C298.227 350.986 297.922 350.959 299.108 354.652C300.381 357.744 301.493 359.301 304.388 361.652C306.584 362.265 307.848 362.209 310.148 361.152C310.716 357.752 310.889 355.815 310.148 352.152Z" fill="black" stroke="black"/>
<path d="M288.252 278C278.98 272.346 274.831 268.691 274.252 259V214C277.687 208.545 281.552 207.355 289.752 206.5L328.252 228.5C333.065 233.589 335.846 236.405 337.252 244.5V290L330.252 295.5C326.48 298.309 323.953 298.636 318.252 295.5L288.252 278Z" fill="#E2FEE6"/>
<path d="M274.252 259C274.831 268.691 278.98 272.346 288.252 278L318.252 295.5C323.953 298.636 326.48 298.309 330.252 295.5L337.252 290V244.5C335.846 236.405 333.065 233.589 328.252 228.5L289.752 206.5C281.552 207.355 277.687 208.545 274.252 214V260" stroke="black"/>
<path d="M279.752 210.012C281.429 209.687 281.063 209.731 283.252 210.012L321.252 232.012C326.95 236.471 328.987 239.92 330.252 248.012V294.512M338.752 281.012L345.752 284.512C350.505 284.934 351.782 283.644 353.752 281.012V273.012M297.752 209V200.512C298.878 195.254 302.302 194.216 307.752 197.012L311.752 199.32M311.752 199.32L346.752 219.512C351.851 225.849 353.433 229.15 353.752 234.512V273.012M311.752 199.32V192.012C311.539 189.944 314.752 185.511 320.752 188.511L360.252 211.512C364.742 215.841 366.36 218.699 367.752 224.512L368.752 269.512C367.498 275.518 365.563 276.478 361.252 276.512L353.752 273.012" stroke="#D9D9D9"/>
<path d="M289.931 254.309L293.709 244.338C294.036 243.446 294.425 242.694 294.876 242.081C295.327 241.468 295.848 240.988 296.441 240.642C297.047 240.299 297.753 240.096 298.559 240.032C299.378 239.971 300.327 240.047 301.406 240.262C301.939 240.368 302.479 240.506 303.029 240.675C303.593 240.847 304.143 241.053 304.678 241.294L304.669 241.562C304.572 241.827 304.466 242.172 304.351 242.598C304.251 243.026 304.156 243.464 304.068 243.91C303.982 244.341 303.91 244.701 303.853 244.988L301.539 256.618L299.058 256.125L301.526 243.718C301.589 243.401 301.648 243.107 301.702 242.833C301.771 242.563 301.859 242.311 301.965 242.078L302.216 242.846C302.043 242.737 301.823 242.64 301.555 242.557C301.302 242.477 301.024 242.407 300.722 242.347C299.845 242.172 299.123 242.156 298.556 242.297C297.99 242.439 297.523 242.719 297.155 243.14C296.802 243.563 296.486 244.136 296.208 244.858L292.455 254.811L289.931 254.309ZM293.124 250.211L293.544 248.096L301.463 249.672L301.042 251.787L293.124 250.211ZM309.405 243.895C309.003 243.815 308.683 243.617 308.447 243.3C308.211 242.984 308.137 242.603 308.226 242.157C308.315 241.711 308.529 241.388 308.868 241.186C309.207 240.984 309.578 240.923 309.981 241.004C310.412 241.09 310.739 241.289 310.961 241.602C311.182 241.916 311.249 242.295 311.16 242.741C311.072 243.187 310.865 243.512 310.54 243.717C310.215 243.921 309.837 243.981 309.405 243.895ZM305.462 257.399L307.068 249.329C307.125 249.042 307.191 248.673 307.265 248.225C307.357 247.764 307.433 247.308 307.493 246.857C307.567 246.408 307.601 246.048 307.595 245.778L307.673 245.614L310.219 246.12L307.879 257.88L305.462 257.399Z" fill="black"/>
<path d="M394.752 285.52L447.752 255.02" stroke="#D9D9D9"/>
<path d="M423.252 165.52L448.252 151.52" stroke="#D9D9D9"/>
<path d="M224.252 213.52L254.252 196.52" stroke="#D9D9D9"/>
<path d="M199.875 133.135L199.266 124.155C197.461 123.502 196.463 123.372 194.777 124.46L188.596 129.389C187.396 130.454 186.975 131.407 186.905 134.014L187.412 141.497C188.531 142.751 189.461 142.824 191.471 142.224L198.116 136.762C199.248 135.586 199.601 134.775 199.875 133.135Z" fill="#87ED82"/>
<path d="M191.252 148.28C189.401 149.793 188.334 150.618 188.252 153.478V161.511C190.183 162.696 191.274 162.768 193.252 161.984L199.752 158.204C200.759 157.376 201.301 156.459 202.252 154.423V146.39C201.424 145.098 200.644 144.56 197.752 144.5L191.252 148.28Z" stroke="#D9D9D9"/>
<path d="M207.694 130.15L204.169 123.058L205.312 122.49L208.342 128.587L211.297 127.118L211.792 128.113L207.694 130.15ZM215.196 126.569C214.408 126.96 213.746 127.118 213.208 127.041C212.67 126.964 212.256 126.634 211.966 126.049C211.776 125.668 211.715 125.306 211.781 124.962C211.848 124.617 212.024 124.296 212.31 123.999C212.596 123.701 212.972 123.436 213.438 123.204C213.773 123.038 214.07 122.927 214.33 122.872C214.586 122.81 214.815 122.762 215.019 122.726L215.405 123.504C215.222 123.53 214.999 123.584 214.736 123.665C214.477 123.737 214.242 123.825 214.032 123.929C213.546 124.171 213.214 124.417 213.036 124.669C212.862 124.912 212.856 125.197 213.02 125.525C213.173 125.834 213.399 126 213.697 126.024C213.992 126.041 214.357 125.942 214.79 125.726C215.04 125.602 215.27 125.464 215.48 125.31C215.687 125.15 215.868 124.978 216.022 124.795L215.997 125.213C215.944 125.157 215.894 125.096 215.845 125.03C215.796 124.965 215.746 124.899 215.697 124.833C215.652 124.758 215.603 124.676 215.55 124.587C215.505 124.495 215.453 124.39 215.394 124.272L214.601 122.676C214.411 122.295 214.214 122.037 214.007 121.902C213.804 121.757 213.58 121.709 213.334 121.758C213.084 121.8 212.795 121.903 212.467 122.066C212.204 122.196 211.958 122.36 211.728 122.556C211.495 122.746 211.317 122.916 211.196 123.066L211.107 123.11L210.647 122.184C210.837 121.975 211.066 121.775 211.332 121.586C211.605 121.393 211.879 121.228 212.155 121.091C212.503 120.918 212.836 120.789 213.154 120.705C213.479 120.617 213.791 120.601 214.089 120.658C214.391 120.704 214.674 120.846 214.939 121.083C215.207 121.31 215.459 121.66 215.694 122.133L216.326 123.403C216.391 123.535 216.476 123.705 216.58 123.915C216.691 124.122 216.804 124.324 216.918 124.521C217.029 124.712 217.127 124.86 217.212 124.965L217.222 125.058C217.044 125.245 216.841 125.436 216.611 125.632C216.377 125.822 216.137 125.999 215.891 126.162C215.645 126.325 215.413 126.461 215.196 126.569ZM221.44 123.465C221.099 123.635 220.756 123.76 220.411 123.842C220.077 123.926 219.75 123.937 219.432 123.874C219.114 123.811 218.815 123.661 218.533 123.424C218.248 123.181 217.99 122.826 217.758 122.359L217.039 120.911C216.973 120.78 216.887 120.614 216.779 120.414C216.668 120.207 216.555 120.005 216.441 119.808C216.333 119.608 216.237 119.455 216.152 119.35L216.132 119.261L217.305 118.679L218.822 121.732C219.025 122.139 219.239 122.422 219.465 122.58C219.691 122.738 219.94 122.802 220.212 122.774C220.481 122.738 220.773 122.642 221.088 122.485C221.292 122.384 221.486 122.263 221.67 122.123C221.86 121.979 222.025 121.848 222.163 121.73L222.108 122.089C222.036 122.011 221.957 121.902 221.872 121.764C221.794 121.623 221.714 121.47 221.632 121.306L220.565 119.159C220.5 119.027 220.413 118.862 220.306 118.661C220.195 118.454 220.082 118.252 219.968 118.055C219.86 117.855 219.763 117.702 219.678 117.597L219.659 117.509L220.831 116.926L222.525 120.334C222.59 120.466 222.675 120.636 222.78 120.846C222.887 121.047 222.995 121.247 223.103 121.447C223.217 121.644 223.317 121.796 223.402 121.901L223.421 121.989C223.273 122.153 223.083 122.33 222.849 122.519C222.616 122.709 222.373 122.887 222.12 123.054C221.87 123.227 221.644 123.364 221.44 123.465ZM225.288 121.405L223.609 118.027C223.544 117.895 223.457 117.73 223.349 117.529C223.245 117.319 223.136 117.115 223.021 116.918C222.914 116.718 222.817 116.565 222.732 116.46L222.713 116.372C222.861 116.208 223.05 116.028 223.28 115.832C223.516 115.632 223.763 115.444 224.019 115.268C224.282 115.088 224.525 114.943 224.748 114.832C225.083 114.665 225.413 114.546 225.738 114.475C226.059 114.397 226.379 114.39 226.697 114.453C227.012 114.509 227.308 114.661 227.586 114.907C227.868 115.144 228.126 115.499 228.361 115.972L229.918 119.104L228.815 119.653L227.292 116.589C227.093 116.189 226.88 115.909 226.655 115.751C226.435 115.59 226.194 115.526 225.932 115.558C225.673 115.58 225.392 115.666 225.09 115.816C224.886 115.918 224.684 116.047 224.484 116.204C224.284 116.361 224.113 116.511 223.971 116.655L223.997 116.262C224.079 116.344 224.164 116.457 224.252 116.602C224.34 116.746 224.428 116.907 224.516 117.084L226.391 120.857L225.288 121.405ZM229.93 115.732C229.63 115.128 229.499 114.559 229.536 114.024C229.573 113.49 229.76 113.008 230.095 112.579C230.427 112.144 230.889 111.78 231.48 111.486C231.96 111.248 232.398 111.116 232.795 111.09L233.26 112.026L233.181 112.065C233.017 112.065 232.833 112.091 232.63 112.143C232.426 112.195 232.213 112.276 231.99 112.387C231.418 112.671 231.044 113.054 230.865 113.536C230.684 114.011 230.746 114.557 231.053 115.174C231.357 115.785 231.754 116.165 232.246 116.314C232.737 116.462 233.269 116.395 233.84 116.111C234.064 116 234.256 115.876 234.417 115.738C234.578 115.601 234.709 115.47 234.811 115.346L234.89 115.306L235.36 116.252C235.1 116.553 234.731 116.823 234.251 117.061C233.647 117.361 233.071 117.513 232.523 117.514C231.976 117.516 231.481 117.369 231.039 117.073C230.597 116.777 230.227 116.33 229.93 115.732ZM236.687 115.74L233.804 109.938C233.738 109.807 233.65 109.637 233.539 109.431C233.435 109.22 233.327 109.02 233.216 108.83C233.108 108.629 233.012 108.477 232.927 108.371L232.907 108.283L234.07 107.705L235.416 110.414L235.013 110.172C235.175 109.969 235.36 109.774 235.571 109.588C235.784 109.392 236.052 109.214 236.374 109.054C236.669 108.907 236.971 108.806 237.28 108.751C237.585 108.689 237.883 108.696 238.175 108.773C238.467 108.849 238.747 109.008 239.015 109.252C239.283 109.495 239.532 109.847 239.76 110.306L241.317 113.439L240.214 113.987L238.706 110.953C238.507 110.553 238.296 110.277 238.073 110.125C237.854 109.964 237.618 109.893 237.365 109.912C237.119 109.928 236.862 110.003 236.593 110.136C236.435 110.215 236.285 110.309 236.144 110.421C236 110.525 235.867 110.636 235.745 110.754C235.627 110.862 235.53 110.964 235.454 111.058L235.421 110.424L237.791 115.191L236.687 115.74Z" fill="black"/>
<path d="M210.981 149.456L207.137 142.532L208.252 141.913L212.097 148.837L210.981 149.456ZM210.18 146.517L209.651 145.565L212.834 143.797L213.363 144.749L210.18 146.517ZM208.311 143.151L207.771 142.18L211.483 140.118L212.023 141.09L208.311 143.151ZM214.543 144.031C214.219 143.448 214.047 142.897 214.028 142.379C214.015 141.858 214.136 141.388 214.391 140.97C214.651 140.549 215.026 140.202 215.513 139.932C216 139.661 216.488 139.529 216.978 139.534C217.467 139.539 217.926 139.686 218.356 139.976C218.792 140.263 219.172 140.698 219.496 141.281C219.819 141.865 219.988 142.417 220.001 142.938C220.02 143.456 219.902 143.924 219.648 144.342C219.393 144.76 219.022 145.105 218.535 145.375C218.035 145.653 217.54 145.789 217.051 145.784C216.562 145.779 216.102 145.631 215.673 145.341C215.243 145.051 214.867 144.615 214.543 144.031ZM215.639 143.422C215.974 144.025 216.347 144.418 216.759 144.6C217.167 144.776 217.595 144.74 218.044 144.49C218.486 144.245 218.741 143.902 218.807 143.463C218.87 143.017 218.734 142.493 218.399 141.89C218.057 141.274 217.683 140.879 217.274 140.703C216.866 140.527 216.441 140.561 215.999 140.807C215.55 141.056 215.292 141.401 215.226 141.84C215.16 142.28 215.297 142.807 215.639 143.422ZM222.307 143.167L219.162 137.503C219.091 137.375 218.995 137.21 218.875 137.008C218.761 136.803 218.644 136.608 218.525 136.423C218.408 136.227 218.305 136.079 218.215 135.978L218.191 135.89L219.326 135.26L223.385 142.569L222.307 143.167ZM225.144 141.592L221.999 135.928C221.927 135.8 221.832 135.635 221.711 135.433C221.597 135.228 221.481 135.033 221.361 134.848C221.244 134.653 221.141 134.504 221.051 134.403L221.028 134.316L222.163 133.685L226.221 140.994L225.144 141.592ZM226.113 137.607C225.789 137.023 225.618 136.473 225.599 135.955C225.586 135.433 225.707 134.964 225.961 134.546C226.222 134.124 226.596 133.778 227.083 133.507C227.57 133.237 228.059 133.104 228.548 133.109C229.037 133.114 229.497 133.262 229.926 133.552C230.362 133.838 230.742 134.273 231.066 134.857C231.39 135.44 231.558 135.992 231.571 136.514C231.59 137.032 231.472 137.5 231.218 137.918C230.964 138.336 230.593 138.68 230.106 138.951C229.605 139.228 229.111 139.365 228.621 139.359C228.132 139.354 227.673 139.207 227.243 138.917C226.814 138.627 226.437 138.19 226.113 137.607ZM227.21 136.998C227.544 137.601 227.917 137.993 228.329 138.176C228.737 138.352 229.165 138.315 229.614 138.066C230.057 137.82 230.311 137.478 230.377 137.038C230.44 136.592 230.304 136.068 229.97 135.465C229.628 134.85 229.253 134.454 228.845 134.278C228.437 134.102 228.011 134.137 227.569 134.383C227.12 134.632 226.863 134.976 226.796 135.415C226.73 135.855 226.868 136.382 227.21 136.998ZM234.437 136.432L230.187 132.086L230.123 131.97L231.219 131.362L234.892 135.324L234.656 135.443L233.518 130.085L234.239 129.685L238.167 133.518L237.941 133.656L236.547 128.403L237.644 127.795L237.708 127.91L239.073 133.858L237.823 134.552L234.482 131.324L234.732 131.185L235.678 135.743L234.437 136.432ZM239.297 128.965L242.605 127.128L243.139 128.09L239.831 129.927L239.297 128.965ZM248.582 128.729C248.249 128.914 247.912 129.055 247.571 129.152C247.241 129.251 246.915 129.277 246.595 129.229C246.274 129.18 245.968 129.044 245.676 128.82C245.381 128.59 245.106 128.247 244.854 127.792L244.069 126.378C243.998 126.25 243.904 126.089 243.787 125.893C243.666 125.692 243.545 125.495 243.422 125.304C243.305 125.108 243.202 124.96 243.112 124.859L243.088 124.771L244.233 124.136L245.888 127.117C246.109 127.515 246.336 127.787 246.568 127.935C246.801 128.082 247.053 128.135 247.324 128.094C247.591 128.046 247.878 127.937 248.186 127.766C248.385 127.656 248.573 127.526 248.75 127.377C248.934 127.225 249.092 127.087 249.225 126.963L249.186 127.324C249.111 127.249 249.027 127.144 248.936 127.01C248.852 126.872 248.765 126.724 248.676 126.563L247.512 124.467C247.44 124.339 247.346 124.177 247.23 123.982C247.109 123.78 246.988 123.583 246.864 123.392C246.748 123.197 246.644 123.048 246.555 122.947L246.531 122.86L247.676 122.224L249.523 125.552C249.594 125.68 249.687 125.847 249.801 126.052C249.918 126.247 250.034 126.442 250.151 126.637C250.274 126.829 250.381 126.975 250.471 127.077L250.494 127.164C250.354 127.334 250.171 127.52 249.947 127.72C249.722 127.92 249.488 128.109 249.243 128.287C249.001 128.471 248.781 128.619 248.582 128.729ZM253.571 128.727L250.479 123.159C250.415 123.043 250.325 122.888 250.208 122.693C250.098 122.494 249.983 122.302 249.863 122.117C249.746 121.922 249.643 121.773 249.553 121.672L249.53 121.585C249.764 121.296 250.035 121.015 250.345 120.742C250.662 120.466 250.996 120.23 251.349 120.034C251.746 119.813 252.14 119.67 252.532 119.603C252.929 119.534 253.31 119.548 253.676 119.648C254.044 119.737 254.387 119.916 254.703 120.184C255.027 120.449 255.313 120.806 255.562 121.255C255.79 121.665 255.937 122.074 256.004 122.481C256.071 122.889 256.054 123.28 255.952 123.656C255.846 124.025 255.658 124.373 255.386 124.699C255.118 125.016 254.762 125.298 254.32 125.543C254.127 125.65 253.924 125.738 253.711 125.806C253.503 125.871 253.34 125.924 253.22 125.965L252.781 125.039C252.88 125.034 253.01 125.012 253.172 124.972C253.338 124.923 253.539 124.832 253.776 124.7C254.36 124.376 254.702 123.972 254.802 123.489C254.909 123.002 254.797 122.46 254.466 121.864C254.131 121.261 253.734 120.886 253.275 120.738C252.812 120.584 252.308 120.659 251.763 120.961C251.551 121.079 251.364 121.216 251.2 121.375C251.032 121.526 250.912 121.664 250.839 121.789L250.817 121.411C250.903 121.489 250.988 121.597 251.073 121.735C251.164 121.869 251.256 122.019 251.348 122.186L254.648 128.129L253.571 128.727Z" fill="black"/>
<path d="M190.396 133.757L193.524 135.55L196.509 127.83" stroke="black"/>
<path d="M223.266 98.9999C221.785 98.6477 221.144 98.1317 221.266 95.5L243.266 82.5C245.12 83.279 246.109 83.0555 245.766 85.9999L223.266 98.9999Z" fill="black"/>
</svg>
